<svg version="1.1" id="Layer_1" xmlns="http://www.w3.org/2000/svg" xmlns:xlink="http://www.w3.org/1999/xlink" x="0px" y="0px"
	 width="100%" viewBox="0 0 512 512" enable-background="new 0 0 512 512" xml:space="preserve">
<path fill="#FAFAFA" opacity="1.000000" stroke="none" 
	d="
M359.000000,513.000000 
	C239.362411,513.000000 120.224808,513.000000 1.043608,513.000000 
	C1.043608,342.404053 1.043608,171.808090 1.043608,1.106062 
	C171.554260,1.106062 342.108612,1.106062 512.831482,1.106062 
	C512.831482,171.666534 512.831482,342.333252 512.831482,513.000000 
	C461.808014,513.000000 410.654022,513.000000 359.000000,513.000000 
M174.006546,339.995270 
	C174.006546,339.995270 173.960999,339.958588 174.126282,340.888733 
	C174.126282,367.815735 174.126282,394.742706 174.126282,421.612701 
	C257.153748,421.612701 339.511780,421.612701 421.605591,421.612701 
	C421.605591,311.522949 421.605591,201.821152 421.605591,92.223587 
	C311.626617,92.223587 202.042542,92.223587 92.334106,92.223587 
	C92.334106,174.799637 92.334106,257.151245 92.334106,339.841614 
	C94.637444,339.841614 96.609566,339.837189 98.581657,339.842316 
	C123.735512,339.907684 148.889359,339.974426 174.006546,339.995270 
z"/>
<path fill="#F96600" opacity="1.000000" stroke="none" 
	d="
M174.043213,340.040833 
	C148.889359,339.974426 123.735512,339.907684 98.581657,339.842316 
	C96.609566,339.837189 94.637444,339.841614 92.334106,339.841614 
	C92.334106,257.151245 92.334106,174.799637 92.334106,92.223587 
	C202.042542,92.223587 311.626617,92.223587 421.605591,92.223587 
	C421.605591,201.821152 421.605591,311.522949 421.605591,421.612701 
	C339.511780,421.612701 257.153748,421.612701 174.126282,421.612701 
	C174.126282,394.742706 174.126282,367.815735 174.512848,340.379272 
	C215.877853,339.861267 256.856293,339.864105 297.834747,339.836060 
	C307.961060,339.829132 317.793549,338.319214 326.555023,332.856049 
	C342.302063,323.037140 346.986542,307.772217 346.629059,290.387604 
	C346.409088,279.689270 344.314209,269.372253 335.638763,261.937073 
	C332.285858,259.063507 328.260529,256.974457 324.380035,254.421783 
	C332.530273,249.792007 336.872894,242.391479 338.624786,233.362595 
	C339.256104,230.109070 339.477295,226.762558 339.703827,223.446060 
	C341.280670,200.359451 329.380859,183.047562 307.075317,177.311600 
	C299.106903,175.262497 290.647491,174.370056 282.399506,174.292160 
	C248.087143,173.968033 213.769974,174.152618 179.454559,174.165939 
	C177.840393,174.166565 176.226303,174.314621 174.155838,174.416458 
	C174.155838,176.703232 174.157043,178.665817 174.155655,180.628387 
	C174.118347,233.765869 174.080750,286.903351 174.043213,340.040833 
z"/>
<path fill="#FAF9F8" opacity="1.000000" stroke="none" 
	d="
M174.024872,340.018066 
	C174.080750,286.903351 174.118347,233.765869 174.155655,180.628387 
	C174.157043,178.665817 174.155838,176.703232 174.155838,174.416458 
	C176.226303,174.314621 177.840393,174.166565 179.454559,174.165939 
	C213.769974,174.152618 248.087143,173.968033 282.399506,174.292160 
	C290.647491,174.370056 299.106903,175.262497 307.075317,177.311600 
	C329.380859,183.047562 341.280670,200.359451 339.703827,223.446060 
	C339.477295,226.762558 339.256104,230.109070 338.624786,233.362595 
	C336.872894,242.391479 332.530273,249.792007 324.380035,254.421783 
	C328.260529,256.974457 332.285858,259.063507 335.638763,261.937073 
	C344.314209,269.372253 346.409088,279.689270 346.629059,290.387604 
	C346.986542,307.772217 342.302063,323.037140 326.555023,332.856049 
	C317.793549,338.319214 307.961060,339.829132 297.834747,339.836060 
	C256.856293,339.864105 215.877853,339.861267 174.430206,339.914215 
	C173.960999,339.958588 174.006546,339.995270 174.024872,340.018066 
M274.497498,306.998810 
	C281.643402,306.667297 288.819824,306.639252 295.927307,305.925415 
	C304.314911,305.083069 309.758118,300.825989 310.792694,294.109680 
	C313.032135,279.571716 308.367462,272.290985 293.588409,271.025391 
	C291.765961,270.869354 289.927704,270.849640 288.096741,270.848816 
	C263.933197,270.837769 239.769623,270.836304 215.606064,270.852142 
	C213.862488,270.853302 212.118988,271.007294 210.406921,271.088745 
	C210.406921,283.300934 210.406921,294.902283 210.406921,306.998810 
	C231.599121,306.998810 252.548737,306.998810 274.497498,306.998810 
M298.294037,237.976578 
	C304.853455,233.266220 305.159821,226.507874 303.827881,219.573532 
	C302.581421,213.084290 297.679291,209.906357 291.629364,208.516205 
	C288.405365,207.775375 285.055389,207.239594 281.758026,207.216599 
	C258.760620,207.056259 235.762070,207.050842 212.763870,207.017151 
	C211.989807,207.016006 211.215439,207.241867 210.474823,207.356689 
	C210.474823,218.921616 210.474823,230.164078 210.474823,241.595123 
	C211.574478,241.694901 212.377914,241.831055 213.181427,241.831467 
	C235.847931,241.843185 258.518097,242.060959 281.178314,241.683395 
	C286.686188,241.591644 292.161316,239.533615 298.294037,237.976578 
z"/>
<path fill="#F96701" opacity="1.000000" stroke="none" 
	d="
M273.997925,306.998810 
	C252.548737,306.998810 231.599121,306.998810 210.406921,306.998810 
	C210.406921,294.902283 210.406921,283.300934 210.406921,271.088745 
	C212.118988,271.007294 213.862488,270.853302 215.606064,270.852142 
	C239.769623,270.836304 263.933197,270.837769 288.096741,270.848816 
	C289.927704,270.849640 291.765961,270.869354 293.588409,271.025391 
	C308.367462,272.290985 313.032135,279.571716 310.792694,294.109680 
	C309.758118,300.825989 304.314911,305.083069 295.927307,305.925415 
	C288.819824,306.639252 281.643402,306.667297 273.997925,306.998810 
z"/>
<path fill="#F96803" opacity="1.000000" stroke="none" 
	d="
M297.972778,238.178131 
	C292.161316,239.533615 286.686188,241.591644 281.178314,241.683395 
	C258.518097,242.060959 235.847931,241.843185 213.181427,241.831467 
	C212.377914,241.831055 211.574478,241.694901 210.474823,241.595123 
	C210.474823,230.164078 210.474823,218.921616 210.474823,207.356689 
	C211.215439,207.241867 211.989807,207.016006 212.763870,207.017151 
	C235.762070,207.050842 258.760620,207.056259 281.758026,207.216599 
	C285.055389,207.239594 288.405365,207.775375 291.629364,208.516205 
	C297.679291,209.906357 302.581421,213.084290 303.827881,219.573532 
	C305.159821,226.507874 304.853455,233.266220 297.972778,238.178131 
z"/>
</svg>