<svg version="1.1" id="Layer_1" xmlns="http://www.w3.org/2000/svg" xmlns:xlink="http://www.w3.org/1999/xlink" x="0px" y="0px"
	 width="100%" viewBox="0 0 652 522" enable-background="new 0 0 652 522" xml:space="preserve">
<path fill="#FEFFFE" opacity="1.000000" stroke="none" 
	d="
M460.000000,523.000000 
	C306.666656,523.000000 153.833328,523.000000 1.000000,523.000000 
	C1.000000,349.000000 1.000000,175.000000 1.000000,1.000000 
	C218.333328,1.000000 435.666656,1.000000 653.000000,1.000000 
	C653.000000,175.000000 653.000000,349.000000 653.000000,523.000000 
	C588.833313,523.000000 524.666687,523.000000 460.000000,523.000000 
M248.791962,396.385712 
	C248.725555,395.887482 248.659134,395.389221 249.267899,394.253876 
	C252.691788,394.000671 256.113525,393.571014 259.540009,393.529205 
	C267.957733,393.426483 267.963043,393.498016 267.297882,385.099091 
	C267.275360,384.814117 266.970886,384.551483 266.655579,384.054077 
	C250.591309,384.054077 234.394806,384.054077 217.940216,384.054077 
	C217.940216,387.227325 217.940216,390.100067 217.940216,393.574005 
	C223.986496,393.574005 229.712692,393.574005 235.918289,393.574005 
	C235.918289,404.607269 235.918579,415.044159 235.918213,425.481079 
	C235.917847,435.719116 236.028259,435.893829 246.031265,434.701782 
	C247.162842,434.566956 249.002304,432.878113 249.004852,431.905884 
	C249.035187,420.311462 248.779556,408.716278 248.791962,396.385712 
M293.505127,414.606659 
	C295.512512,416.966034 297.854858,419.122284 299.440430,421.737366 
	C301.320404,424.837952 302.304321,428.480072 304.168701,431.592712 
	C305.019531,433.013245 307.013885,434.553436 308.551788,434.620880 
	C315.848694,434.940826 323.170654,434.890198 330.474365,434.666748 
	C331.775848,434.626923 333.982422,433.314728 334.160034,432.306274 
	C335.506989,424.658905 340.520233,423.708405 346.943848,424.529694 
	C349.565094,424.864838 352.303650,424.864929 354.920563,424.511597 
	C358.602539,424.014526 360.391724,425.566772 361.593292,428.875977 
	C362.344147,430.943756 363.630157,434.051819 365.152191,434.362823 
	C369.008331,435.150787 373.133026,434.624390 377.903076,434.624390 
	C371.369446,419.954071 364.876923,406.485992 359.402954,392.615967 
	C356.673553,385.700134 353.126923,382.801270 345.567993,383.613770 
	C341.694489,384.030060 339.627686,384.890564 338.226379,388.549866 
	C333.947418,399.724091 329.394928,410.794189 324.889008,421.880493 
	C323.436401,425.454437 321.798187,428.952911 319.817505,433.457947 
	C316.080841,426.556763 312.964630,420.801422 309.594940,414.330017 
	C308.673920,413.128632 307.752899,411.927216 306.831848,410.725830 
	C307.462982,410.801636 308.094086,410.877411 308.725189,410.953217 
	C310.653290,407.134216 313.620056,403.487366 314.287567,399.459473 
	C315.573212,391.701813 308.720184,384.497437 300.222107,384.010681 
	C293.429443,383.621613 286.590942,384.069214 279.791534,383.748322 
	C275.936829,383.566467 274.586456,384.530060 274.685730,388.674957 
	C274.984039,401.132568 274.805542,413.601776 274.800079,426.066437 
	C274.795563,436.331848 273.668823,434.452301 284.076202,434.793152 
	C286.875488,434.884827 288.046661,433.812531 287.981323,431.044708 
	C287.891083,427.224152 288.170227,423.381409 287.860962,419.583221 
	C287.537781,415.614166 288.639069,413.453552 293.505127,414.606659 
M169.221298,383.939087 
	C162.254562,383.888306 155.285797,383.740540 148.323242,383.887543 
	C147.234634,383.910583 146.174377,385.274994 145.001251,386.949310 
	C145.038971,401.627533 145.076691,416.305756 144.949402,431.817596 
	C145.543289,432.788147 146.155151,434.614227 146.728378,434.602173 
	C157.008118,434.385925 167.319305,434.343750 177.546005,433.411377 
	C183.940002,432.828430 189.823715,423.239258 186.671906,416.392059 
	C184.923721,412.594208 181.935913,409.366943 179.318130,405.611786 
	C186.882843,395.931641 184.057419,386.770416 171.293732,384.283936 
	C170.831955,384.302429 170.370178,384.320923 169.221298,383.939087 
M255.275696,79.982086 
	C253.681808,81.026543 251.753296,81.777596 250.542725,83.158165 
	C216.286652,122.224510 182.138474,161.385529 147.839340,200.413910 
	C145.123245,203.504501 145.076828,205.513962 147.396423,208.912247 
	C176.386353,251.383606 205.196960,293.977356 234.058792,336.536163 
	C238.987259,343.803497 243.940308,351.054138 249.019989,358.515167 
	C249.873291,357.830780 250.435715,357.501068 250.842941,357.035583 
	C269.374786,335.854401 287.926544,314.690308 306.308319,293.379517 
	C307.175659,292.373962 307.234009,289.576599 306.462250,288.416656 
	C296.137726,272.898590 285.591370,257.528229 275.113892,242.111832 
	C267.004669,230.180054 258.914673,218.235199 250.719879,206.154251 
	C287.436554,164.147293 323.900543,122.429466 360.869019,80.134430 
	C359.127136,80.134430 358.049835,80.134430 356.045502,80.014442 
	C322.697083,80.052467 289.348633,80.090492 255.275696,79.982086 
M315.411255,299.865845 
	C298.548096,319.158875 281.684937,338.451935 264.204102,358.451660 
	C266.254608,358.675049 266.891571,358.805389 267.528473,358.805054 
	C300.352692,358.788055 333.177246,358.686859 366.000763,358.826904 
	C370.035980,358.844086 372.781464,357.727386 375.433899,354.679932 
	C409.764740,315.236572 444.180786,275.867188 478.684998,236.575439 
	C480.925232,234.024368 480.205170,232.476486 478.625488,230.151825 
	C445.508942,181.417938 412.463226,132.635925 379.393463,83.870239 
	C378.504303,82.559029 377.502563,81.324188 375.340515,78.430489 
	C374.462921,80.322533 374.183838,81.572388 373.444885,82.422440 
	C355.636444,102.907860 337.834961,123.400146 319.861969,143.740738 
	C317.506195,146.406815 317.548126,147.988403 319.543213,150.894669 
	C338.076843,177.892944 356.402435,205.034042 374.717316,232.028885 
	C355.081360,254.485199 335.476471,276.906006 315.411255,299.865845 
M443.171448,396.523010 
	C443.167175,407.851837 443.199493,419.180908 443.131500,430.509369 
	C443.115570,433.164825 443.356720,434.889160 446.846283,434.817261 
	C457.004364,434.608063 467.171814,434.632202 477.331116,434.814819 
	C481.405579,434.888062 480.859222,432.289673 480.910126,429.807892 
	C480.962738,427.241058 481.304871,424.650970 477.304840,424.832367 
	C472.815491,425.035950 468.310608,424.899780 463.812469,424.904083 
	C455.886932,424.911682 456.010803,424.911652 456.161011,417.011597 
	C456.214050,414.221985 457.050354,413.138550 459.889862,413.226654 
	C465.216309,413.391937 470.558075,413.138031 475.879059,413.377960 
	C479.603638,413.545898 479.412567,411.257690 479.280731,408.835907 
	C479.155090,406.527802 480.261230,403.511719 476.006500,403.645447 
	C471.179626,403.797150 466.324860,403.430695 461.519684,403.790497 
	C457.394562,404.099396 456.074158,402.829681 456.070923,398.588531 
	C456.067719,394.418915 457.239502,393.092224 461.419342,393.326080 
	C467.639832,393.674072 473.894226,393.416290 480.014496,393.416290 
	C480.014496,389.769012 480.014496,387.016357 480.014496,384.419800 
	C479.368103,384.138031 479.070465,383.895905 478.771729,383.894501 
	C470.777222,383.858124 462.782623,383.838043 454.788025,383.832642 
	C443.170563,383.824768 443.170563,383.830566 443.171448,396.523010 
M420.635498,386.906982 
	C408.678040,381.348022 396.107452,384.854492 383.247559,383.668304 
	C383.247559,400.363770 383.202087,416.317841 383.374451,432.269592 
	C383.383606,433.116241 385.238892,434.672302 386.225586,434.665009 
	C395.042023,434.599670 403.945892,434.951660 412.649902,433.829865 
	C425.026672,432.234802 431.724762,425.180573 433.922821,413.358337 
	C435.855438,402.963776 431.262177,393.476074 420.635498,386.906982 
M196.898132,418.492920 
	C196.898148,420.992157 196.891937,423.491394 196.899277,425.990601 
	C196.929886,436.402222 195.864410,434.414001 205.614212,434.807709 
	C209.147552,434.950378 210.232712,433.775696 210.179153,430.247925 
	C209.989517,417.754608 210.159607,405.256378 210.077087,392.760773 
	C210.009827,382.576355 211.905823,384.055023 201.113190,383.758057 
	C197.816132,383.667358 196.757553,384.693756 196.821304,388.005859 
	C197.010437,397.832581 196.895096,407.665192 196.898132,418.492920 
z"/>
<path fill="#00703C" opacity="1.000000" stroke="none" 
	d="
M256.000214,80.128510 
	C289.348633,80.090492 322.697083,80.052467 356.358582,80.363663 
	C348.890076,89.546638 341.107056,98.379105 333.327362,107.214493 
	C325.767456,115.800308 318.177917,124.360359 310.659821,132.982635 
	C295.301544,150.596542 279.978607,168.241257 264.649567,185.880615 
	C259.865417,191.385818 255.112137,196.917786 250.337448,202.431183 
	C248.131866,204.977966 247.814453,207.198166 250.034821,210.289307 
	C256.123230,218.765320 261.711365,227.598801 267.591370,236.226807 
	C278.990143,252.952713 290.380585,269.685425 301.950500,286.292694 
	C304.287292,289.646851 304.208466,292.221130 301.466736,295.095428 
	C298.836700,297.852570 296.376617,300.773712 293.879578,303.655487 
	C283.243164,315.930603 272.658997,328.251282 261.973328,340.483337 
	C257.992096,345.040741 253.785400,349.401276 249.216751,354.355530 
	C246.723495,350.458740 244.757874,347.225525 242.637131,344.097443 
	C225.056183,318.165924 207.429123,292.265625 189.855118,266.329376 
	C183.806854,257.403168 177.918518,248.368500 171.868454,239.443481 
	C164.649704,228.794388 157.266052,218.256012 150.162140,207.531662 
	C149.382401,206.354538 149.240280,203.666626 150.038437,202.699677 
	C158.795410,192.090775 167.696060,181.595261 176.764297,171.250046 
	C184.841858,162.035034 193.285660,153.141251 201.374161,143.935562 
	C211.653595,132.236313 221.768509,120.391846 231.896378,108.560364 
	C239.976044,99.121635 247.968857,89.608582 256.000214,80.128510 
z"/>
<path fill="#9E7D30" opacity="1.000000" stroke="none" 
	d="
M315.641418,299.596313 
	C335.476471,276.906006 355.081360,254.485199 374.717316,232.028885 
	C356.402435,205.034042 338.076843,177.892944 319.543213,150.894669 
	C317.548126,147.988403 317.506195,146.406815 319.861969,143.740738 
	C337.834961,123.400146 355.636444,102.907860 373.444885,82.422440 
	C374.183838,81.572388 374.462921,80.322533 375.340515,78.430489 
	C377.502563,81.324188 378.504303,82.559029 379.393463,83.870239 
	C412.463226,132.635925 445.508942,181.417938 478.625488,230.151825 
	C480.205170,232.476486 480.925232,234.024368 478.684998,236.575439 
	C444.180786,275.867188 409.764740,315.236572 375.433899,354.679932 
	C372.781464,357.727386 370.035980,358.844086 366.000763,358.826904 
	C333.177246,358.686859 300.352692,358.788055 267.528473,358.805054 
	C266.891571,358.805389 266.254608,358.675049 264.204102,358.451660 
	C281.684937,338.451935 298.548096,319.158875 315.641418,299.596313 
M289.514587,354.001221 
	C314.180542,354.001221 338.848816,354.169556 363.510071,353.829071 
	C367.440033,353.774780 371.382294,351.547974 375.212128,350.052216 
	C375.924713,349.773895 376.060059,348.151001 376.577057,347.212158 
	C377.845215,344.909363 378.960419,342.474182 380.549316,340.409454 
	C382.218872,338.240021 384.557983,336.591095 386.267792,334.446320 
	C389.824615,329.984680 392.195953,324.585144 398.155029,322.242218 
	C400.991547,321.127014 404.387268,319.446503 403.371674,314.964905 
	C403.205933,314.233429 404.064270,312.577271 404.640503,312.479889 
	C409.225037,311.705109 410.849457,307.891083 413.278198,304.759888 
	C416.329956,300.825439 419.789948,297.210480 422.988129,293.386017 
	C427.324280,288.200775 431.576599,282.945374 435.870728,277.724884 
	C436.977203,276.379730 438.165863,275.098053 439.213013,273.708984 
	C442.438904,269.429657 447.558838,267.075073 450.112030,261.875092 
	C451.444824,259.160736 455.473816,257.895874 457.846344,255.535446 
	C461.008453,252.389481 465.734833,249.061340 466.193298,245.365387 
	C466.873596,239.881454 470.179749,238.860046 473.287109,237.414719 
	C476.558380,229.946075 472.050262,225.610916 467.821838,221.067017 
	C465.271118,218.326050 462.772919,215.472595 460.708008,212.365982 
	C459.375977,210.362045 459.193573,207.611938 457.931702,205.539856 
	C455.050659,200.809067 451.035309,196.615707 448.954834,191.593399 
	C446.826385,186.455292 440.233154,185.509583 439.474396,178.709030 
	C439.012543,174.569778 433.738586,171.024246 430.803070,167.080338 
	C429.333710,165.106308 428.766693,162.056503 426.910126,160.853012 
	C421.979675,157.656906 419.516754,153.453522 418.572174,147.764526 
	C418.273010,145.962631 415.975708,144.522537 414.680054,142.849335 
	C412.493958,140.026230 410.168976,137.278320 408.296722,134.254623 
	C406.757080,131.768158 406.215027,128.607010 404.483398,126.307892 
	C400.384033,120.865211 396.070770,115.540802 391.409637,110.576385 
	C386.937012,105.812706 385.207733,99.451614 380.543610,94.589149 
	C375.460968,89.290359 376.308868,88.368202 370.312134,93.464264 
	C368.828918,94.724686 367.820892,96.535118 366.547638,98.053474 
	C363.141449,102.115318 359.827972,106.265335 356.227509,110.148422 
	C354.879913,111.601822 351.590179,112.201271 351.359161,113.559669 
	C350.748016,117.153000 349.205933,118.863632 345.715729,119.378273 
	C345.068146,119.473770 344.502014,120.783218 344.077759,121.623070 
	C341.589081,126.549919 336.687439,129.791519 334.706879,135.069061 
	C334.662292,135.187790 334.437042,135.274124 334.280914,135.310486 
	C328.144470,136.739471 328.339417,142.943634 325.611115,146.930176 
	C325.160126,147.589127 325.148254,148.991470 325.543518,149.718658 
	C329.766815,157.488663 334.107239,165.195114 338.441467,172.904419 
	C338.676453,173.322388 339.162140,173.592453 339.497009,173.962250 
	C343.090210,177.930038 346.685089,181.896408 350.249725,185.889755 
	C350.560638,186.238037 350.933044,186.867722 350.816650,187.210281 
	C349.277100,191.740494 353.207397,192.897919 355.383911,195.400116 
	C357.589966,197.936234 358.753021,201.384796 360.341003,204.450256 
	C360.853149,205.438950 360.981750,206.892670 361.767242,207.430359 
	C366.994629,211.008499 370.098877,215.659790 371.875580,221.905823 
	C372.916016,225.563538 376.577942,228.475571 379.105591,231.781876 
	C376.598358,235.989777 371.168518,238.077133 371.967896,243.822266 
	C372.052948,244.433701 370.782959,245.287415 370.066772,245.947525 
	C366.607941,249.135330 361.137726,251.747162 360.078552,255.584000 
	C358.121155,262.674866 348.172516,262.169220 348.121033,270.062408 
	C348.119080,270.359924 346.911316,270.530609 346.475464,270.969116 
	C345.569763,271.880310 344.809052,272.934967 343.981537,273.924683 
	C342.986511,275.114746 342.047791,276.360077 340.973602,277.474396 
	C336.470917,282.145264 331.925812,286.775208 327.402802,291.426514 
	C327.293610,291.538818 327.211487,291.721832 327.199799,291.878082 
	C326.749481,297.904449 322.273621,300.151459 317.748260,302.879395 
	C314.984528,304.545502 312.123505,307.609070 311.273773,310.603333 
	C308.571838,320.124756 301.045807,326.261169 294.172729,331.155823 
	C285.679901,337.204102 282.007996,345.681854 275.297729,354.001221 
	C280.618927,354.001221 284.570343,354.001221 289.514587,354.001221 
z"/>
<path fill="#1B703C" opacity="1.000000" stroke="none" 
	d="
M255.637955,80.055298 
	C247.968857,89.608582 239.976044,99.121635 231.896378,108.560364 
	C221.768509,120.391846 211.653595,132.236313 201.374161,143.935562 
	C193.285660,153.141251 184.841858,162.035034 176.764297,171.250046 
	C167.696060,181.595261 158.795410,192.090775 150.038437,202.699677 
	C149.240280,203.666626 149.382401,206.354538 150.162140,207.531662 
	C157.266052,218.256012 164.649704,228.794388 171.868454,239.443481 
	C177.918518,248.368500 183.806854,257.403168 189.855118,266.329376 
	C207.429123,292.265625 225.056183,318.165924 242.637131,344.097443 
	C244.757874,347.225525 246.723495,350.458740 249.216751,354.355530 
	C253.785400,349.401276 257.992096,345.040741 261.973328,340.483337 
	C272.658997,328.251282 283.243164,315.930603 293.879578,303.655487 
	C296.376617,300.773712 298.836700,297.852570 301.466736,295.095428 
	C304.208466,292.221130 304.287292,289.646851 301.950500,286.292694 
	C290.380585,269.685425 278.990143,252.952713 267.591370,236.226807 
	C261.711365,227.598801 256.123230,218.765320 250.034821,210.289307 
	C247.814453,207.198166 248.131866,204.977966 250.337448,202.431183 
	C255.112137,196.917786 259.865417,191.385818 264.649567,185.880615 
	C279.978607,168.241257 295.301544,150.596542 310.659821,132.982635 
	C318.177917,124.360359 325.767456,115.800308 333.327362,107.214493 
	C341.107056,98.379105 348.890076,89.546638 356.822083,80.423660 
	C358.049835,80.134430 359.127136,80.134430 360.869019,80.134430 
	C323.900543,122.429466 287.436554,164.147293 250.719879,206.154251 
	C258.914673,218.235199 267.004669,230.180054 275.113892,242.111832 
	C285.591370,257.528229 296.137726,272.898590 306.462250,288.416656 
	C307.234009,289.576599 307.175659,292.373962 306.308319,293.379517 
	C287.926544,314.690308 269.374786,335.854401 250.842941,357.035583 
	C250.435715,357.501068 249.873291,357.830780 249.019989,358.515167 
	C243.940308,351.054138 238.987259,343.803497 234.058792,336.536163 
	C205.196960,293.977356 176.386353,251.383606 147.396423,208.912247 
	C145.076828,205.513962 145.123245,203.504501 147.839340,200.413910 
	C182.138474,161.385529 216.286652,122.224510 250.542725,83.158165 
	C251.753296,81.777596 253.681808,81.026543 255.637955,80.055298 
z"/>
<path fill="#056F3B" opacity="1.000000" stroke="none" 
	d="
M145.114395,430.983978 
	C145.076691,416.305756 145.038971,401.627533 145.512207,386.449890 
	C153.984894,385.413452 161.946655,384.876434 169.908401,384.339417 
	C170.370178,384.320923 170.831955,384.302429 171.689819,384.748535 
	C173.675369,386.536713 175.193237,387.959778 176.868210,389.164429 
	C181.199112,392.279236 182.431534,396.806458 179.886490,400.675232 
	C175.891998,406.747375 175.906876,406.948059 181.279190,412.189758 
	C185.173569,415.989471 184.859909,420.709839 183.323227,425.106964 
	C181.921463,429.118042 178.408737,431.105255 173.960068,431.076904 
	C164.345032,431.015625 154.729645,431.011505 145.114395,430.983978 
M172.064453,423.546265 
	C175.517242,418.329651 173.768509,414.116302 167.727768,413.307922 
	C165.935867,413.068146 164.071472,413.374054 162.278290,413.139374 
	C158.491699,412.643860 156.964600,413.777893 157.142838,417.961395 
	C157.475189,425.761292 157.221420,425.844666 165.156921,425.330353 
	C167.268463,425.193512 169.341629,424.464111 172.064453,423.546265 
M157.998260,403.709625 
	C162.236954,404.292114 166.761032,405.453308 169.637100,401.040314 
	C170.411423,399.852203 170.261566,396.520966 169.561539,396.181274 
	C166.636963,394.761963 163.380356,393.872986 160.154495,393.336517 
	C159.349472,393.202637 157.546997,394.994354 157.355576,396.100494 
	C156.970627,398.324799 157.378998,400.686371 157.998260,403.709625 
z"/>
<path fill="#1E7543" opacity="1.000000" stroke="none" 
	d="
M309.848389,415.046082 
	C312.964630,420.801422 316.080841,426.556763 319.817505,433.457947 
	C321.798187,428.952911 323.436401,425.454437 324.889008,421.880493 
	C329.394928,410.794189 333.947418,399.724091 338.226379,388.549866 
	C339.627686,384.890564 341.694489,384.030060 345.567993,383.613770 
	C353.126923,382.801270 356.673553,385.700134 359.402954,392.615967 
	C364.876923,406.485992 371.369446,419.954071 377.903076,434.624390 
	C373.133026,434.624390 369.008331,435.150787 365.152191,434.362823 
	C363.630157,434.051819 362.344147,430.943756 361.593292,428.875977 
	C360.391724,425.566772 358.602539,424.014526 354.920563,424.511597 
	C352.303650,424.864929 349.565094,424.864838 346.943848,424.529694 
	C340.520233,423.708405 335.506989,424.658905 334.160034,432.306274 
	C333.982422,433.314728 331.775848,434.626923 330.474365,434.666748 
	C323.170654,434.890198 315.848694,434.940826 308.551788,434.620880 
	C307.013885,434.553436 305.019531,433.013245 304.168701,431.592712 
	C302.304321,428.480072 301.320404,424.837952 299.440430,421.737366 
	C297.854858,419.122284 295.512512,416.966034 293.058777,414.059845 
	C291.062622,413.334686 289.512817,413.156342 288.059265,412.616730 
	C288.811951,411.855927 289.463318,411.119324 290.125519,411.109528 
	C296.165009,411.019897 299.102203,415.297089 301.710022,419.771637 
	C303.352112,422.589142 304.107605,426.059509 306.175354,428.443939 
	C307.509277,429.982117 310.499420,430.084015 312.747314,430.829590 
	C312.677002,429.151123 312.979889,427.346069 312.462006,425.819397 
	C311.216553,422.147858 309.586426,418.606781 308.401093,415.011902 
	C309.076569,415.022461 309.462494,415.034271 309.848389,415.046082 
M331.979279,412.480591 
	C329.646851,418.401001 327.314423,424.321442 324.981995,430.241852 
	C325.372040,430.721100 325.762115,431.200317 326.152191,431.679565 
	C328.188568,430.696411 331.241364,430.236206 332.067535,428.630402 
	C334.393616,424.109253 337.665192,422.603546 342.460358,422.958221 
	C345.940369,423.215607 349.455536,423.055511 352.953613,422.997375 
	C358.012970,422.913300 362.792755,422.906708 364.962891,429.061493 
	C365.358521,430.183624 368.625397,430.374207 370.614807,430.712891 
	C370.789642,430.742676 371.943268,428.392242 371.597290,427.608887 
	C366.014984,414.969604 360.104156,402.473724 354.633331,389.787720 
	C352.632111,385.147095 349.005280,387.158478 346.127350,387.168610 
	C344.255554,387.175171 341.380188,388.625275 340.695801,390.190216 
	C337.603607,397.261169 335.132080,404.603546 331.979279,412.480591 
z"/>
<path fill="#207544" opacity="1.000000" stroke="none" 
	d="
M443.171509,396.029175 
	C443.170563,383.830566 443.170563,383.824768 454.788025,383.832642 
	C462.782623,383.838043 470.777222,383.858124 478.771729,383.894501 
	C479.070465,383.895905 479.368103,384.138031 480.014496,384.419800 
	C480.014496,387.016357 480.014496,389.769012 480.014496,393.416290 
	C473.894226,393.416290 467.639832,393.674072 461.419342,393.326080 
	C457.239502,393.092224 456.067719,394.418915 456.070923,398.588531 
	C456.074158,402.829681 457.394562,404.099396 461.519684,403.790497 
	C466.324860,403.430695 471.179626,403.797150 476.006500,403.645447 
	C480.261230,403.511719 479.155090,406.527802 479.280731,408.835907 
	C479.412567,411.257690 479.603638,413.545898 475.879059,413.377960 
	C470.558075,413.138031 465.216309,413.391937 459.889862,413.226654 
	C457.050354,413.138550 456.214050,414.221985 456.161011,417.011597 
	C456.010803,424.911652 455.886932,424.911682 463.812469,424.904083 
	C468.310608,424.899780 472.815491,425.035950 477.304840,424.832367 
	C481.304871,424.650970 480.962738,427.241058 480.910126,429.807892 
	C480.859222,432.289673 481.405579,434.888062 477.331116,434.814819 
	C467.171814,434.632202 457.004364,434.608063 446.846283,434.817261 
	C443.356720,434.889160 443.115570,433.164825 443.131500,430.509369 
	C443.199493,419.180908 443.167175,407.851837 443.171509,396.029175 
M476.001221,407.000000 
	C476.001221,407.000000 476.010590,406.983063 475.860931,406.183167 
	C474.367828,405.803314 472.882751,405.138733 471.380127,405.096344 
	C466.612091,404.961853 461.837524,405.059540 456.408203,404.733368 
	C452.322418,402.830231 451.923828,398.721771 453.401794,395.891510 
	C454.619171,393.560181 458.294861,391.839661 461.176270,391.219330 
	C464.836914,390.431152 468.814789,391.247131 472.616028,390.915283 
	C474.087646,390.786835 475.450317,389.410522 476.862610,388.602692 
	C475.520111,387.726593 474.199768,386.134918 472.831482,386.092560 
	C465.012207,385.850525 457.180634,386.044830 449.355194,385.941162 
	C446.671356,385.905579 445.933441,387.097961 445.946136,389.563171 
	C446.011108,402.218964 446.017822,414.875488 445.943207,427.531158 
	C445.928101,430.099182 446.868042,431.083496 449.452667,431.055023 
	C457.944550,430.961426 466.438477,431.055817 474.930573,430.972107 
	C475.946625,430.962067 476.956268,430.300385 477.968872,429.940704 
	C477.886780,429.284058 477.804688,428.627380 477.722595,427.970703 
	C472.551636,427.970703 467.364746,427.721191 462.214783,428.050110 
	C458.135284,428.310669 454.898773,427.244965 453.234528,423.521240 
	C451.501251,419.643066 453.404602,414.573730 457.974243,411.963013 
	C462.722321,411.963806 467.476837,412.100403 472.214264,411.876160 
	C473.505249,411.815033 474.744843,410.667603 476.001862,410.001221 
	C476.001862,410.001221 476.018982,410.008850 476.693146,409.952576 
	C476.467804,408.964600 476.242462,407.976624 476.001221,407.000000 
z"/>
<path fill="#006C37" opacity="1.000000" stroke="none" 
	d="
M248.592728,394.890991 
	C248.659134,395.389221 248.725555,395.887482 248.458679,397.080261 
	C248.062363,407.246704 247.639374,416.735413 248.082687,426.183533 
	C248.317017,431.177246 245.033783,432.430847 241.947479,432.649475 
	C238.523300,432.892090 237.904633,429.590546 237.929092,426.491516 
	C238.006531,416.681824 237.811188,406.867889 238.027069,397.062347 
	C238.118332,392.916626 236.182480,391.292267 232.470581,391.113007 
	C229.981995,390.992828 227.455734,391.304779 224.997833,391.003357 
	C222.924149,390.749054 220.924606,389.890045 218.892258,389.298737 
	C218.911041,388.766632 218.929840,388.234558 218.948639,387.702484 
	C220.550873,387.126831 222.147400,386.070831 223.756226,386.051727 
	C236.390900,385.901703 249.028641,385.890900 261.662994,386.042023 
	C262.755493,386.055054 263.830383,387.541870 264.913483,388.344055 
	C263.768188,389.250458 262.705231,390.773865 261.461182,390.939850 
	C258.519562,391.332245 255.473312,390.880249 252.505310,391.156250 
	C250.469391,391.345612 247.358063,391.017944 248.592728,394.890991 
z"/>
<path fill="#217848" opacity="1.000000" stroke="none" 
	d="
M420.961853,387.083771 
	C431.262177,393.476074 435.855438,402.963776 433.922821,413.358337 
	C431.724762,425.180573 425.026672,432.234802 412.649902,433.829865 
	C403.945892,434.951660 395.042023,434.599670 386.225586,434.665009 
	C385.238892,434.672302 383.383606,433.116241 383.374451,432.269592 
	C383.202087,416.317841 383.247559,400.363770 383.247559,383.668304 
	C396.107452,384.854492 408.678040,381.348022 420.961853,387.083771 
M385.963745,389.907257 
	C385.962006,400.238892 385.959595,410.570496 385.958710,420.902130 
	C385.957825,431.039886 385.964691,431.257294 396.302246,430.962891 
	C403.493561,430.758087 410.779694,430.454742 417.816528,429.111542 
	C426.863556,427.384552 430.173706,420.012329 430.864502,411.885651 
	C431.544891,403.881195 429.443176,396.755585 422.325195,391.321381 
	C417.346161,387.520172 411.728271,387.820587 406.382111,386.808075 
	C400.910065,385.771790 395.150208,386.061401 389.525208,386.182800 
	C388.329651,386.208557 387.172485,388.014465 385.963745,389.907257 
z"/>
<path fill="#287C4D" opacity="1.000000" stroke="none" 
	d="
M248.930313,394.572449 
	C247.358063,391.017944 250.469391,391.345612 252.505310,391.156250 
	C255.473312,390.880249 258.519562,391.332245 261.461182,390.939850 
	C262.705231,390.773865 263.768188,389.250458 264.913483,388.344055 
	C263.830383,387.541870 262.755493,386.055054 261.662994,386.042023 
	C249.028641,385.890900 236.390900,385.901703 223.756226,386.051727 
	C222.147400,386.070831 220.550873,387.126831 218.948639,387.702484 
	C218.929840,388.234558 218.911041,388.766632 218.892258,389.298737 
	C220.924606,389.890045 222.924149,390.749054 224.997833,391.003357 
	C227.455734,391.304779 229.981995,390.992828 232.470581,391.113007 
	C236.182480,391.292267 238.118332,392.916626 238.027069,397.062347 
	C237.811188,406.867889 238.006531,416.681824 237.929092,426.491516 
	C237.904633,429.590546 238.523300,432.892090 241.947479,432.649475 
	C245.033783,432.430847 248.317017,431.177246 248.082687,426.183533 
	C247.639374,416.735413 248.062363,407.246704 248.362106,397.448059 
	C248.779556,408.716278 249.035187,420.311462 249.004852,431.905884 
	C249.002304,432.878113 247.162842,434.566956 246.031265,434.701782 
	C236.028259,435.893829 235.917847,435.719116 235.918213,425.481079 
	C235.918579,415.044159 235.918289,404.607269 235.918289,393.574005 
	C229.712692,393.574005 223.986496,393.574005 217.940216,393.574005 
	C217.940216,390.100067 217.940216,387.227325 217.940216,384.054077 
	C234.394806,384.054077 250.591309,384.054077 266.655579,384.054077 
	C266.970886,384.551483 267.275360,384.814117 267.297882,385.099091 
	C267.963043,393.498016 267.957733,393.426483 259.540009,393.529205 
	C256.113525,393.571014 252.691788,394.000671 248.930313,394.572449 
z"/>
<path fill="#207544" opacity="1.000000" stroke="none" 
	d="
M287.963013,412.978027 
	C289.512817,413.156342 291.062622,413.334686 292.799591,413.774780 
	C288.639069,413.453552 287.537781,415.614166 287.860962,419.583221 
	C288.170227,423.381409 287.891083,427.224152 287.981323,431.044708 
	C288.046661,433.812531 286.875488,434.884827 284.076202,434.793152 
	C273.668823,434.452301 274.795563,436.331848 274.800079,426.066437 
	C274.805542,413.601776 274.984039,401.132568 274.685730,388.674957 
	C274.586456,384.530060 275.936829,383.566467 279.791534,383.748322 
	C286.590942,384.069214 293.429443,383.621613 300.222107,384.010681 
	C308.720184,384.497437 315.573212,391.701813 314.287567,399.459473 
	C313.620056,403.487366 310.653290,407.134216 308.725189,410.953217 
	C308.094086,410.877411 307.462982,410.801636 306.831848,410.725830 
	C307.752899,411.927216 308.673920,413.128632 309.721680,414.688049 
	C309.462494,415.034271 309.076569,415.022461 308.350220,414.973999 
	C308.009735,414.937347 307.911133,414.860901 307.835907,414.679474 
	C307.604156,414.276581 307.397766,414.121338 307.079224,413.654755 
	C305.844330,410.414124 306.342804,408.304138 308.568146,405.750458 
	C314.429474,399.024170 309.615753,386.199036 300.902588,385.464722 
	C294.833282,384.953217 288.653442,385.908356 282.523102,385.905823 
	C278.989624,385.904358 277.894897,387.405884 277.923859,390.739105 
	C278.029449,402.887177 278.015869,415.037079 277.927338,427.185425 
	C277.907776,429.868591 278.654541,431.090057 281.579437,431.098572 
	C284.669067,431.107544 285.154327,429.558228 285.063263,427.028381 
	C284.949646,423.870422 284.718414,420.658722 285.169189,417.562134 
	C285.406372,415.933014 286.988312,414.499725 287.963013,412.978027 
z"/>
<path fill="#207544" opacity="1.000000" stroke="none" 
	d="
M196.898453,417.994202 
	C196.895096,407.665192 197.010437,397.832581 196.821304,388.005859 
	C196.757553,384.693756 197.816132,383.667358 201.113190,383.758057 
	C211.905823,384.055023 210.009827,382.576355 210.077087,392.760773 
	C210.159607,405.256378 209.989517,417.754608 210.179153,430.247925 
	C210.232712,433.775696 209.147552,434.950378 205.614212,434.807709 
	C195.864410,434.414001 196.929886,436.402222 196.899277,425.990601 
	C196.891937,423.491394 196.898148,420.992157 196.898453,417.994202 
M199.963943,413.498718 
	C199.964142,417.826355 199.931641,422.154388 199.978745,426.481506 
	C200.001266,428.548492 199.368134,430.976166 202.878281,431.050873 
	C206.259827,431.122833 206.039337,428.950134 206.037277,426.720520 
	C206.026306,414.902710 206.025330,403.084869 206.038223,391.267059 
	C206.040665,389.029053 206.243179,386.869415 202.867874,386.947937 
	C199.354095,387.029694 199.991592,389.466217 199.979721,391.526947 
	C199.939438,398.517517 199.964005,405.508514 199.963943,413.498718 
z"/>
<path fill="#287C4D" opacity="1.000000" stroke="none" 
	d="
M145.031891,431.400787 
	C154.729645,431.011505 164.345032,431.015625 173.960068,431.076904 
	C178.408737,431.105255 181.921463,429.118042 183.323227,425.106964 
	C184.859909,420.709839 185.173569,415.989471 181.279190,412.189758 
	C175.906876,406.948059 175.891998,406.747375 179.886490,400.675232 
	C182.431534,396.806458 181.199112,392.279236 176.868210,389.164429 
	C175.193237,387.959778 173.675369,386.536713 172.007507,384.896729 
	C184.057419,386.770416 186.882843,395.931641 179.318130,405.611786 
	C181.935913,409.366943 184.923721,412.594208 186.671906,416.392059 
	C189.823715,423.239258 183.940002,432.828430 177.546005,433.411377 
	C167.319305,434.343750 157.008118,434.385925 146.728378,434.602173 
	C146.155151,434.614227 145.543289,432.788147 145.031891,431.400787 
z"/>
<path fill="#287C4D" opacity="1.000000" stroke="none" 
	d="
M169.564850,384.139252 
	C161.946655,384.876434 153.984894,385.413452 145.562073,385.984802 
	C146.174377,385.274994 147.234634,383.910583 148.323242,383.887543 
	C155.285797,383.740540 162.254562,383.888306 169.564850,384.139252 
z"/>
<path fill="#9D7B2D" opacity="1.000000" stroke="none" 
	d="
M289.018188,354.001221 
	C284.570343,354.001221 280.618927,354.001221 275.297729,354.001221 
	C282.007996,345.681854 285.679901,337.204102 294.172729,331.155823 
	C301.045807,326.261169 308.571838,320.124756 311.273773,310.603333 
	C312.123505,307.609070 314.984528,304.545502 317.748260,302.879395 
	C322.273621,300.151459 326.749481,297.904449 327.199799,291.878082 
	C327.211487,291.721832 327.293610,291.538818 327.402802,291.426514 
	C331.925812,286.775208 336.470917,282.145264 340.973602,277.474396 
	C342.047791,276.360077 342.986511,275.114746 343.981537,273.924683 
	C344.809052,272.934967 345.569763,271.880310 346.475464,270.969116 
	C346.911316,270.530609 348.119080,270.359924 348.121033,270.062408 
	C348.172516,262.169220 358.121155,262.674866 360.078552,255.584000 
	C361.137726,251.747162 366.607941,249.135330 370.066772,245.947525 
	C370.782959,245.287415 372.052948,244.433701 371.967896,243.822266 
	C371.168518,238.077133 376.598358,235.989777 379.105591,231.781876 
	C376.577942,228.475571 372.916016,225.563538 371.875580,221.905823 
	C370.098877,215.659790 366.994629,211.008499 361.767242,207.430359 
	C360.981750,206.892670 360.853149,205.438950 360.341003,204.450256 
	C358.753021,201.384796 357.589966,197.936234 355.383911,195.400116 
	C353.207397,192.897919 349.277100,191.740494 350.816650,187.210281 
	C350.933044,186.867722 350.560638,186.238037 350.249725,185.889755 
	C346.685089,181.896408 343.090210,177.930038 339.497009,173.962250 
	C339.162140,173.592453 338.676453,173.322388 338.441467,172.904419 
	C334.107239,165.195114 329.766815,157.488663 325.543518,149.718658 
	C325.148254,148.991470 325.160126,147.589127 325.611115,146.930176 
	C328.339417,142.943634 328.144470,136.739471 334.280914,135.310486 
	C334.437042,135.274124 334.662292,135.187790 334.706879,135.069061 
	C336.687439,129.791519 341.589081,126.549919 344.077759,121.623070 
	C344.502014,120.783218 345.068146,119.473770 345.715729,119.378273 
	C349.205933,118.863632 350.748016,117.153000 351.359161,113.559669 
	C351.590179,112.201271 354.879913,111.601822 356.227509,110.148422 
	C359.827972,106.265335 363.141449,102.115318 366.547638,98.053474 
	C367.820892,96.535118 368.828918,94.724686 370.312134,93.464264 
	C376.308868,88.368202 375.460968,89.290359 380.543610,94.589149 
	C385.207733,99.451614 386.937012,105.812706 391.409637,110.576385 
	C396.070770,115.540802 400.384033,120.865211 404.483398,126.307892 
	C406.215027,128.607010 406.757080,131.768158 408.296722,134.254623 
	C410.168976,137.278320 412.493958,140.026230 414.680054,142.849335 
	C415.975708,144.522537 418.273010,145.962631 418.572174,147.764526 
	C419.516754,153.453522 421.979675,157.656906 426.910126,160.853012 
	C428.766693,162.056503 429.333710,165.106308 430.803070,167.080338 
	C433.738586,171.024246 439.012543,174.569778 439.474396,178.709030 
	C440.233154,185.509583 446.826385,186.455292 448.954834,191.593399 
	C451.035309,196.615707 455.050659,200.809067 457.931702,205.539856 
	C459.193573,207.611938 459.375977,210.362045 460.708008,212.365982 
	C462.772919,215.472595 465.271118,218.326050 467.821838,221.067017 
	C472.050262,225.610916 476.558380,229.946075 473.287109,237.414719 
	C470.179749,238.860046 466.873596,239.881454 466.193298,245.365387 
	C465.734833,249.061340 461.008453,252.389481 457.846344,255.535446 
	C455.473816,257.895874 451.444824,259.160736 450.112030,261.875092 
	C447.558838,267.075073 442.438904,269.429657 439.213013,273.708984 
	C438.165863,275.098053 436.977203,276.379730 435.870728,277.724884 
	C431.576599,282.945374 427.324280,288.200775 422.988129,293.386017 
	C419.789948,297.210480 416.329956,300.825439 413.278198,304.759888 
	C410.849457,307.891083 409.225037,311.705109 404.640503,312.479889 
	C404.064270,312.577271 403.205933,314.233429 403.371674,314.964905 
	C404.387268,319.446503 400.991547,321.127014 398.155029,322.242218 
	C392.195953,324.585144 389.824615,329.984680 386.267792,334.446320 
	C384.557983,336.591095 382.218872,338.240021 380.549316,340.409454 
	C378.960419,342.474182 377.845215,344.909363 376.577057,347.212158 
	C376.060059,348.151001 375.924713,349.773895 375.212128,350.052216 
	C371.382294,351.547974 367.440033,353.774780 363.510071,353.829071 
	C338.848816,354.169556 314.180542,354.001221 289.018188,354.001221 
z"/>
<path fill="#E7F1EB" opacity="1.000000" stroke="none" 
	d="
M171.748428,423.776489 
	C169.341629,424.464111 167.268463,425.193512 165.156921,425.330353 
	C157.221420,425.844666 157.475189,425.761292 157.142838,417.961395 
	C156.964600,413.777893 158.491699,412.643860 162.278290,413.139374 
	C164.071472,413.374054 165.935867,413.068146 167.727768,413.307922 
	C173.768509,414.116302 175.517242,418.329651 171.748428,423.776489 
z"/>
<path fill="#E7F1EB" opacity="1.000000" stroke="none" 
	d="
M157.729126,403.350464 
	C157.378998,400.686371 156.970627,398.324799 157.355576,396.100494 
	C157.546997,394.994354 159.349472,393.202637 160.154495,393.336517 
	C163.380356,393.872986 166.636963,394.761963 169.561539,396.181274 
	C170.261566,396.520966 170.411423,399.852203 169.637100,401.040314 
	C166.761032,405.453308 162.236954,404.292114 157.729126,403.350464 
z"/>
<path fill="#06713D" opacity="1.000000" stroke="none" 
	d="
M288.059265,412.616730 
	C286.988312,414.499725 285.406372,415.933014 285.169189,417.562134 
	C284.718414,420.658722 284.949646,423.870422 285.063263,427.028381 
	C285.154327,429.558228 284.669067,431.107544 281.579437,431.098572 
	C278.654541,431.090057 277.907776,429.868591 277.927338,427.185425 
	C278.015869,415.037079 278.029449,402.887177 277.923859,390.739105 
	C277.894897,387.405884 278.989624,385.904358 282.523102,385.905823 
	C288.653442,385.908356 294.833282,384.953217 300.902588,385.464722 
	C309.615753,386.199036 314.429474,399.024170 308.568146,405.750458 
	C306.342804,408.304138 305.844330,410.414124 307.139771,413.846313 
	C307.414093,414.658020 307.630280,414.806519 307.911133,414.860901 
	C307.911133,414.860901 308.009735,414.937347 308.060608,414.975220 
	C309.586426,418.606781 311.216553,422.147858 312.462006,425.819397 
	C312.979889,427.346069 312.677002,429.151123 312.747314,430.829590 
	C310.499420,430.084015 307.509277,429.982117 306.175354,428.443939 
	C304.107605,426.059509 303.352112,422.589142 301.710022,419.771637 
	C299.102203,415.297089 296.165009,411.019897 290.125519,411.109528 
	C289.463318,411.119324 288.811951,411.855927 288.059265,412.616730 
M301.125031,400.752319 
	C301.358856,395.058990 299.415314,393.720612 293.017303,393.089020 
	C286.952972,392.490326 286.936249,395.927002 287.523529,399.950470 
	C287.763123,401.592041 288.762268,404.367096 289.639771,404.457703 
	C293.610413,404.867584 298.036774,405.789551 301.125031,400.752319 
z"/>
<path fill="#04713D" opacity="1.000000" stroke="none" 
	d="
M332.208130,412.164368 
	C335.132080,404.603546 337.603607,397.261169 340.695801,390.190216 
	C341.380188,388.625275 344.255554,387.175171 346.127350,387.168610 
	C349.005280,387.158478 352.632111,385.147095 354.633331,389.787720 
	C360.104156,402.473724 366.014984,414.969604 371.597290,427.608887 
	C371.943268,428.392242 370.789642,430.742676 370.614807,430.712891 
	C368.625397,430.374207 365.358521,430.183624 364.962891,429.061493 
	C362.792755,422.906708 358.012970,422.913300 352.953613,422.997375 
	C349.455536,423.055511 345.940369,423.215607 342.460358,422.958221 
	C337.665192,422.603546 334.393616,424.109253 332.067535,428.630402 
	C331.241364,430.236206 328.188568,430.696411 326.152191,431.679565 
	C325.762115,431.200317 325.372040,430.721100 324.981995,430.241852 
	C327.314423,424.321442 329.646851,418.401001 332.208130,412.164368 
M355.784729,415.778168 
	C355.784729,415.778168 355.647034,415.741241 356.418091,415.813965 
	C356.737946,414.464111 357.635071,412.930511 357.274384,411.797211 
	C355.946533,407.624603 354.393951,403.492065 352.494843,399.552185 
	C351.937866,398.396667 349.951782,397.930054 348.218994,397.340271 
	C347.907166,397.404022 347.624878,397.339172 346.599609,397.110046 
	C345.876282,397.457916 344.727814,397.627594 344.495728,398.181335 
	C342.317169,403.379395 340.247711,408.626251 338.368866,413.937622 
	C338.275024,414.203003 340.227600,415.192261 341.126678,415.878906 
	C341.126678,415.878906 341.146545,415.774384 341.065338,416.633850 
	C342.938507,419.426331 354.004333,420.182159 355.739777,417.573242 
	C356.034210,417.130554 355.745270,416.299774 355.784729,415.778168 
z"/>
<path fill="#0B7441" opacity="1.000000" stroke="none" 
	d="
M457.047333,411.960754 
	C453.404602,414.573730 451.501251,419.643066 453.234528,423.521240 
	C454.898773,427.244965 458.135284,428.310669 462.214783,428.050110 
	C467.364746,427.721191 472.551636,427.970703 477.722595,427.970703 
	C477.804688,428.627380 477.886780,429.284058 477.968872,429.940704 
	C476.956268,430.300385 475.946625,430.962067 474.930573,430.972107 
	C466.438477,431.055817 457.944550,430.961426 449.452667,431.055023 
	C446.868042,431.083496 445.928101,430.099182 445.943207,427.531158 
	C446.017822,414.875488 446.011108,402.218964 445.946136,389.563171 
	C445.933441,387.097961 446.671356,385.905579 449.355194,385.941162 
	C457.180634,386.044830 465.012207,385.850525 472.831482,386.092560 
	C474.199768,386.134918 475.520111,387.726593 476.862610,388.602692 
	C475.450317,389.410522 474.087646,390.786835 472.616028,390.915283 
	C468.814789,391.247131 464.836914,390.431152 461.176270,391.219330 
	C458.294861,391.839661 454.619171,393.560181 453.401794,395.891510 
	C451.923828,398.721771 452.322418,402.830231 456.804779,405.293152 
	C458.693481,406.237671 460.177338,406.910919 461.679199,406.953766 
	C466.452728,407.089874 471.232941,406.991089 476.010590,406.983063 
	C476.010590,406.983063 476.001221,407.000000 475.997772,407.371826 
	C476.002563,408.498718 476.010773,409.253784 476.018982,410.008850 
	C476.018982,410.008850 476.001862,410.001221 475.536072,410.001038 
	C470.321014,409.997955 465.565247,409.857971 460.826782,410.082489 
	C459.540192,410.143433 458.305725,411.304565 457.047333,411.960754 
z"/>
<path fill="#00632A" opacity="1.000000" stroke="none" 
	d="
M457.510803,411.961853 
	C458.305725,411.304565 459.540192,410.143433 460.826782,410.082489 
	C465.565247,409.857971 470.321014,409.997955 475.539124,410.009766 
	C474.744843,410.667603 473.505249,411.815033 472.214264,411.876160 
	C467.476837,412.100403 462.722321,411.963806 457.510803,411.961853 
z"/>
<path fill="#00632A" opacity="1.000000" stroke="none" 
	d="
M475.935760,406.583130 
	C471.232941,406.991089 466.452728,407.089874 461.679199,406.953766 
	C460.177338,406.910919 458.693481,406.237671 457.133423,405.460236 
	C461.837524,405.059540 466.612091,404.961853 471.380127,405.096344 
	C472.882751,405.138733 474.367828,405.803314 475.935760,406.583130 
z"/>
<path fill="#00632A" opacity="1.000000" stroke="none" 
	d="
M476.356079,409.980713 
	C476.010773,409.253784 476.002563,408.498718 476.005737,407.366150 
	C476.242462,407.976624 476.467804,408.964600 476.356079,409.980713 
z"/>
<path fill="#07713D" opacity="1.000000" stroke="none" 
	d="
M385.980682,389.453735 
	C387.172485,388.014465 388.329651,386.208557 389.525208,386.182800 
	C395.150208,386.061401 400.910065,385.771790 406.382111,386.808075 
	C411.728271,387.820587 417.346161,387.520172 422.325195,391.321381 
	C429.443176,396.755585 431.544891,403.881195 430.864502,411.885651 
	C430.173706,420.012329 426.863556,427.384552 417.816528,429.111542 
	C410.779694,430.454742 403.493561,430.758087 396.302246,430.962891 
	C385.964691,431.257294 385.957825,431.039886 385.958710,420.902130 
	C385.959595,410.570496 385.962006,400.238892 385.980682,389.453735 
M395.107117,394.039276 
	C394.073853,395.401794 392.201416,396.731781 392.147156,398.132263 
	C391.852875,405.724731 392.059814,413.335144 391.982269,420.938263 
	C391.951813,423.924286 393.246918,425.223083 396.878815,425.043457 
	C400.664917,424.955231 404.505676,425.242157 408.225586,424.699860 
	C415.752808,423.602600 420.206879,418.461426 420.782532,410.904419 
	C421.422180,402.508301 417.991516,396.159546 410.498169,394.361877 
	C405.871948,393.252014 400.785828,394.059021 395.107117,394.039276 
z"/>
<path fill="#1E7543" opacity="1.000000" stroke="none" 
	d="
M307.835907,414.679474 
	C307.630280,414.806519 307.414093,414.658020 307.202087,414.223846 
	C307.397766,414.121338 307.604156,414.276581 307.835907,414.679474 
z"/>
<path fill="#00703C" opacity="1.000000" stroke="none" 
	d="
M199.963867,412.999023 
	C199.964005,405.508514 199.939438,398.517517 199.979721,391.526947 
	C199.991592,389.466217 199.354095,387.029694 202.867874,386.947937 
	C206.243179,386.869415 206.040665,389.029053 206.038223,391.267059 
	C206.025330,403.084869 206.026306,414.902710 206.037277,426.720520 
	C206.039337,428.950134 206.259827,431.122833 202.878281,431.050873 
	C199.368134,430.976166 200.001266,428.548492 199.978745,426.481506 
	C199.931641,422.154388 199.964142,417.826355 199.963867,412.999023 
z"/>
<path fill="#E7F1EB" opacity="1.000000" stroke="none" 
	d="
M300.965302,401.080933 
	C298.036774,405.789551 293.610413,404.867584 289.639771,404.457703 
	C288.762268,404.367096 287.763123,401.592041 287.523529,399.950470 
	C286.936249,395.927002 286.952972,392.490326 293.017303,393.089020 
	C299.415314,393.720612 301.358856,395.058990 300.965302,401.080933 
z"/>
<path fill="#E7F1EB" opacity="1.000000" stroke="none" 
	d="
M347.372162,397.145691 
	C347.624878,397.339172 347.907166,397.404022 348.492126,397.613403 
	C351.059143,403.838074 353.353088,409.789673 355.647034,415.741241 
	C355.647034,415.741241 355.784729,415.778168 355.312622,415.716370 
	C350.275848,415.694489 345.711212,415.734436 341.146545,415.774384 
	C341.146545,415.774384 341.126678,415.878906 341.172028,415.486053 
	C343.268982,409.110687 345.320557,403.128204 347.372162,397.145691 
z"/>
<path fill="#1B703C" opacity="1.000000" stroke="none" 
	d="
M346.985901,397.127869 
	C345.320557,403.128204 343.268982,409.110687 341.222351,415.468842 
	C340.227600,415.192261 338.275024,414.203003 338.368866,413.937622 
	C340.247711,408.626251 342.317169,403.379395 344.495728,398.181335 
	C344.727814,397.627594 345.876282,397.457916 346.985901,397.127869 
z"/>
<path fill="#1B703C" opacity="1.000000" stroke="none" 
	d="
M356.032562,415.777588 
	C353.353088,409.789673 351.059143,403.838074 348.692963,397.517090 
	C349.951782,397.930054 351.937866,398.396667 352.494843,399.552185 
	C354.393951,403.492065 355.946533,407.624603 357.274384,411.797211 
	C357.635071,412.930511 356.737946,414.464111 356.032562,415.777588 
z"/>
<path fill="#1B703C" opacity="1.000000" stroke="none" 
	d="
M341.105957,416.204102 
	C345.711212,415.734436 350.275848,415.694489 355.283203,415.651428 
	C355.745270,416.299774 356.034210,417.130554 355.739777,417.573242 
	C354.004333,420.182159 342.938507,419.426331 341.105957,416.204102 
z"/>
<path fill="#F4F8F5" opacity="1.000000" stroke="none" 
	d="
M395.906189,394.005463 
	C400.785828,394.059021 405.871948,393.252014 410.498169,394.361877 
	C417.991516,396.159546 421.422180,402.508301 420.782532,410.904419 
	C420.206879,418.461426 415.752808,423.602600 408.225586,424.699860 
	C404.505676,425.242157 400.664917,424.955231 396.518250,424.529846 
	C396.073853,414.012634 395.990021,404.009064 395.906189,394.005463 
z"/>
<path fill="#00632A" opacity="1.000000" stroke="none" 
	d="
M395.506653,394.022369 
	C395.990021,404.009064 396.073853,414.012634 396.171997,424.481750 
	C393.246918,425.223083 391.951813,423.924286 391.982269,420.938263 
	C392.059814,413.335144 391.852875,405.724731 392.147156,398.132263 
	C392.201416,396.731781 394.073853,395.401794 395.506653,394.022369 
z"/>
</svg>