<svg version="1.1" id="Layer_1" xmlns="http://www.w3.org/2000/svg" xmlns:xlink="http://www.w3.org/1999/xlink" x="0px" y="0px"
	 width="100%" viewBox="0 0 225 225" enable-background="new 0 0 225 225" xml:space="preserve">
<path fill="#0160FF" opacity="1.000000" stroke="none" 
	d="
M128.000000,226.000000 
	C85.333336,226.000000 43.166672,226.000000 1.000006,226.000000 
	C1.000004,151.000000 1.000004,76.000015 1.000002,1.000016 
	C75.999992,1.000010 150.999985,1.000010 225.999969,1.000005 
	C225.999985,75.999985 225.999985,150.999969 226.000000,225.999969 
	C193.500000,226.000000 161.000000,226.000000 128.000000,226.000000 
M119.689941,96.499359 
	C119.689941,117.247025 119.689941,137.994690 119.689941,158.685349 
	C130.200790,159.566452 131.963196,159.308762 134.171310,156.708115 
	C149.831512,165.509003 165.848877,160.788071 174.895752,151.166016 
	C184.943604,140.479370 186.733612,125.069572 179.350494,112.407837 
	C175.714966,106.173065 170.511215,101.670860 163.874329,98.825958 
	C153.344528,94.312355 143.204102,95.954514 132.853638,101.619194 
	C132.853638,89.185768 132.853638,77.614853 132.853638,65.930008 
	C128.348740,65.930008 124.252754,65.930008 119.689972,65.930008 
	C119.689972,75.942566 119.689972,85.720947 119.689941,96.499359 
M60.110527,118.840698 
	C68.826706,107.270096 83.228828,107.365715 91.531517,118.983925 
	C92.306099,120.067833 93.577477,121.429108 94.705139,121.514580 
	C98.750313,121.821205 102.832863,121.634819 106.992470,121.634819 
	C104.499451,106.469460 88.627098,94.764984 73.469666,96.238098 
	C55.580021,97.976746 42.293983,112.882309 43.125900,130.280655 
	C43.950470,147.525299 58.111397,161.144608 75.391602,161.312271 
	C90.716843,161.460968 105.609978,149.822205 106.578163,136.671127 
	C102.757401,136.671127 98.938744,136.471512 95.161011,136.777283 
	C93.802826,136.887222 92.160416,137.917953 91.299416,139.032089 
	C84.813751,147.424530 74.477066,149.860519 66.168999,144.769302 
	C57.479469,139.444336 54.929211,129.404938 60.110527,118.840698 
z"/>
<path fill="#FCFDFF" opacity="1.000000" stroke="none" 
	d="
M119.689957,95.999344 
	C119.689972,85.720947 119.689972,75.942566 119.689972,65.930008 
	C124.252754,65.930008 128.348740,65.930008 132.853638,65.930008 
	C132.853638,77.614853 132.853638,89.185768 132.853638,101.619194 
	C143.204102,95.954514 153.344528,94.312355 163.874329,98.825958 
	C170.511215,101.670860 175.714966,106.173065 179.350494,112.407837 
	C186.733612,125.069572 184.943604,140.479370 174.895752,151.166016 
	C165.848877,160.788071 149.831512,165.509003 134.171310,156.708115 
	C131.963196,159.308762 130.200790,159.566452 119.689941,158.685349 
	C119.689941,137.994690 119.689941,117.247025 119.689957,95.999344 
M134.329315,121.222321 
	C131.349442,128.937531 132.317184,135.991058 138.222900,141.956085 
	C143.524002,147.310455 150.037979,148.554962 157.101669,146.355408 
	C165.010071,143.892838 170.176422,136.263412 169.836746,128.055435 
	C169.504135,120.018219 163.867355,112.955536 156.164520,110.924599 
	C147.557770,108.655327 139.827515,112.126236 134.329315,121.222321 
z"/>
<path fill="#FAFCFF" opacity="1.000000" stroke="none" 
	d="
M59.932175,119.177948 
	C54.929211,129.404938 57.479469,139.444336 66.168999,144.769302 
	C74.477066,149.860519 84.813751,147.424530 91.299416,139.032089 
	C92.160416,137.917953 93.802826,136.887222 95.161011,136.777283 
	C98.938744,136.471512 102.757401,136.671127 106.578163,136.671127 
	C105.609978,149.822205 90.716843,161.460968 75.391602,161.312271 
	C58.111397,161.144608 43.950470,147.525299 43.125900,130.280655 
	C42.293983,112.882309 55.580021,97.976746 73.469666,96.238098 
	C88.627098,94.764984 104.499451,106.469460 106.992470,121.634819 
	C102.832863,121.634819 98.750313,121.821205 94.705139,121.514580 
	C93.577477,121.429108 92.306099,120.067833 91.531517,118.983925 
	C83.228828,107.365715 68.826706,107.270096 59.932175,119.177948 
z"/>
<path fill="#0361FF" opacity="1.000000" stroke="none" 
	d="
M134.531860,120.884567 
	C139.827515,112.126236 147.557770,108.655327 156.164520,110.924599 
	C163.867355,112.955536 169.504135,120.018219 169.836746,128.055435 
	C170.176422,136.263412 165.010071,143.892838 157.101669,146.355408 
	C150.037979,148.554962 143.524002,147.310455 138.222900,141.956085 
	C132.317184,135.991058 131.349442,128.937531 134.531860,120.884567 
z"/>
</svg>