<svg version="1.1" id="Layer_1" xmlns="http://www.w3.org/2000/svg" xmlns:xlink="http://www.w3.org/1999/xlink" x="0px" y="0px"
	 width="100%" viewBox="0 0 257 257" enable-background="new 0 0 257 257" xml:space="preserve">
<path fill="#F26522" opacity="1.000000" stroke="none" 
	d="
M119.000000,258.000000 
	C79.333336,258.000000 40.166668,258.000000 1.000000,258.000000 
	C1.000000,172.333328 1.000000,86.666664 1.000000,1.000000 
	C86.666664,1.000000 172.333328,1.000000 258.000000,1.000000 
	C258.000000,86.666664 258.000000,172.333328 258.000000,258.000000 
	C211.833328,258.000000 165.666672,258.000000 119.000000,258.000000 
M123.046371,119.428131 
	C114.645653,102.432770 106.275787,85.421967 97.790154,68.469116 
	C97.050171,66.990761 95.613266,64.869652 94.389992,64.792496 
	C88.354126,64.411812 82.281166,64.619324 75.578476,64.619324 
	C88.817238,89.419205 101.400558,113.414711 114.445847,137.156372 
	C118.096512,143.800369 119.978821,150.339447 119.707062,157.944901 
	C119.267220,170.253937 119.588737,182.590164 119.588768,194.914917 
	C119.588768,196.706238 119.588760,198.497543 119.588760,200.520493 
	C125.398399,200.520493 130.627838,200.520493 136.411240,200.520493 
	C136.411240,198.464844 136.411240,196.667343 136.411255,194.869843 
	C136.411316,180.879593 136.268524,166.886765 136.520218,152.901031 
	C136.577209,149.734787 137.423981,146.288818 138.892181,143.487869 
	C151.937866,118.599846 165.209641,93.830353 178.393524,69.014626 
	C179.043732,67.790779 179.497238,66.462433 180.295090,64.589386 
	C174.991043,64.589386 170.353180,64.774010 165.739014,64.522964 
	C162.778320,64.361877 161.295273,65.499786 160.030853,68.094261 
	C154.784973,78.858261 149.327225,89.519058 143.939606,100.213898 
	C138.837982,110.340981 133.726791,120.463257 128.379120,131.064774 
	C126.535912,127.043640 124.947464,123.578300 123.046371,119.428131 
z"/>
<path fill="#FFFDFC" opacity="1.000000" stroke="none" 
	d="
M123.202698,119.770554 
	C124.947464,123.578300 126.535912,127.043640 128.379120,131.064774 
	C133.726791,120.463257 138.837982,110.340981 143.939606,100.213898 
	C149.327225,89.519058 154.784973,78.858261 160.030853,68.094261 
	C161.295273,65.499786 162.778320,64.361877 165.739014,64.522964 
	C170.353180,64.774010 174.991043,64.589386 180.295090,64.589386 
	C179.497238,66.462433 179.043732,67.790779 178.393524,69.014626 
	C165.209641,93.830353 151.937866,118.599846 138.892181,143.487869 
	C137.423981,146.288818 136.577209,149.734787 136.520218,152.901031 
	C136.268524,166.886765 136.411316,180.879593 136.411255,194.869843 
	C136.411240,196.667343 136.411240,198.464844 136.411240,200.520493 
	C130.627838,200.520493 125.398399,200.520493 119.588760,200.520493 
	C119.588760,198.497543 119.588768,196.706238 119.588768,194.914917 
	C119.588737,182.590164 119.267220,170.253937 119.707062,157.944901 
	C119.978821,150.339447 118.096512,143.800369 114.445847,137.156372 
	C101.400558,113.414711 88.817238,89.419205 75.578476,64.619324 
	C82.281166,64.619324 88.354126,64.411812 94.389992,64.792496 
	C95.613266,64.869652 97.050171,66.990761 97.790154,68.469116 
	C106.275787,85.421967 114.645653,102.432770 123.202698,119.770554 
z"/>
</svg>