<svg version="1.1" id="Layer_1" xmlns="http://www.w3.org/2000/svg" xmlns:xlink="http://www.w3.org/1999/xlink" x="0px" y="0px"
	 width="100%" viewBox="0 0 512 512" enable-background="new 0 0 512 512" xml:space="preserve">
<path fill="#FFFFFF" opacity="1.000000" stroke="none" 
	d="
M346.000000,513.000000 
	C230.694687,513.000000 115.889366,513.000000 1.042022,513.000000 
	C1.042022,342.402985 1.042022,171.805969 1.042022,1.104477 
	C171.555328,1.104477 342.110718,1.104477 512.833069,1.104477 
	C512.833069,171.666534 512.833069,342.333252 512.833069,513.000000 
	C457.472565,513.000000 401.986298,513.000000 346.000000,513.000000 
M402.431671,211.602188 
	C413.706390,195.254517 423.846405,178.265762 431.081696,159.703964 
	C436.751678,145.157913 440.904816,130.265701 437.556030,114.475891 
	C432.123230,88.859619 409.449371,73.293869 382.651764,77.237633 
	C353.084015,81.589088 327.900238,96.038193 303.127869,112.919785 
	C280.490356,106.080704 257.464996,103.824760 234.098343,107.957626 
	C180.943893,117.359077 142.718033,146.711975 120.154373,195.600479 
	C104.475288,229.572235 103.226219,264.936768 113.098709,301.358124 
	C111.187973,304.279449 109.252548,307.184998 107.370453,310.124664 
	C93.874290,331.204865 81.270699,352.755707 77.548187,378.041779 
	C74.325684,399.931366 79.761406,418.481476 99.065453,430.348328 
	C112.192955,438.418243 126.539070,438.397430 141.054321,435.397064 
	C158.848907,431.718842 174.973175,423.821014 190.537628,414.801147 
	C197.952667,410.503967 204.884552,405.373047 212.860626,400.699646 
	C214.003326,400.917328 215.170624,401.048462 216.285095,401.365417 
	C239.926682,408.089142 263.739990,408.710724 287.871826,404.113007 
	C354.401031,391.437500 406.303650,330.413483 408.138947,262.779419 
	C408.608490,245.476044 406.197235,228.653519 402.431671,211.602188 
z"/>
<path fill="#1F3347" opacity="1.000000" stroke="none" 
	d="
M113.579681,300.783356 
	C103.226219,264.936768 104.475288,229.572235 120.154373,195.600479 
	C142.718033,146.711975 180.943893,117.359077 234.098343,107.957626 
	C257.464996,103.824760 280.490356,106.080704 303.825562,113.098602 
	C306.850220,114.166946 309.183685,115.040009 311.503235,115.948593 
	C331.115509,123.630997 348.645508,134.515762 363.241760,150.057312 
	C354.894135,163.211197 346.961365,176.202377 338.358551,188.733582 
	C333.434967,195.905441 327.421783,202.329285 321.611572,208.916565 
	C307.862549,191.390915 290.410950,180.944595 268.577240,177.673981 
	C209.767715,168.864563 161.792999,228.379868 182.809341,284.039307 
	C188.444595,298.963623 197.925201,310.835663 209.880676,321.115234 
	C198.077454,329.965393 186.607986,338.735199 174.803482,347.028046 
	C167.094772,352.443573 158.899902,357.167114 150.617615,362.053680 
	C132.889572,344.644409 121.140152,323.972595 113.579681,300.783356 
z"/>
<path fill="#1C7D6B" opacity="1.000000" stroke="none" 
	d="
M150.922806,362.200623 
	C158.899902,357.167114 167.094772,352.443573 174.803482,347.028046 
	C186.607986,338.735199 198.077454,329.965393 210.110916,321.123016 
	C210.532715,320.847992 210.992599,320.821960 211.188599,321.104401 
	C236.716263,338.621429 263.688538,341.393341 291.402008,328.631805 
	C323.077728,314.045746 340.464905,282.344940 336.839905,247.479446 
	C335.408661,233.713318 330.736023,220.968430 321.906067,209.782532 
	C321.899384,209.551727 321.899170,209.089920 321.899170,209.089920 
	C327.421783,202.329285 333.434967,195.905441 338.358551,188.733582 
	C346.961365,176.202377 354.894135,163.211197 363.505096,150.248169 
	C371.591583,159.873245 380.213440,169.088150 386.701599,179.617813 
	C392.915527,189.702499 396.913361,201.152664 401.885193,212.002701 
	C406.197235,228.653519 408.608490,245.476044 408.138947,262.779419 
	C406.303650,330.413483 354.401031,391.437500 287.871826,404.113007 
	C263.739990,408.710724 239.926682,408.089142 216.285095,401.365417 
	C215.170624,401.048462 214.003326,400.917328 212.217987,400.406433 
	C208.157532,398.821716 204.700790,397.623901 201.328323,396.223206 
	C182.230927,388.291656 164.932144,377.678253 150.922806,362.200623 
z"/>
<path fill="#8AE1B0" opacity="1.000000" stroke="none" 
	d="
M150.617615,362.053680 
	C164.932144,377.678253 182.230927,388.291656 201.328323,396.223206 
	C204.700790,397.623901 208.157532,398.821716 211.805328,400.366516 
	C204.884552,405.373047 197.952667,410.503967 190.537628,414.801147 
	C174.973175,423.821014 158.848907,431.718842 141.054321,435.397064 
	C126.539070,438.397430 112.192955,438.418243 99.065453,430.348328 
	C79.761406,418.481476 74.325684,399.931366 77.548187,378.041779 
	C81.270699,352.755707 93.874290,331.204865 107.370453,310.124664 
	C109.252548,307.184998 111.187973,304.279449 113.339195,301.070740 
	C121.140152,323.972595 132.889572,344.644409 150.617615,362.053680 
z"/>
<path fill="#8AE1B0" opacity="1.000000" stroke="none" 
	d="
M402.158447,211.802444 
	C396.913361,201.152664 392.915527,189.702499 386.701599,179.617813 
	C380.213440,169.088150 371.591583,159.873245 363.639191,149.892700 
	C348.645508,134.515762 331.115509,123.630997 311.503235,115.948593 
	C309.183685,115.040009 306.850220,114.166946 304.205536,113.078964 
	C327.900238,96.038193 353.084015,81.589088 382.651764,77.237633 
	C409.449371,73.293869 432.123230,88.859619 437.556030,114.475891 
	C440.904816,130.265701 436.751678,145.157913 431.081696,159.703964 
	C423.846405,178.265762 413.706390,195.254517 402.158447,211.802444 
z"/>
<path fill="#FEFEFE" opacity="1.000000" stroke="none" 
	d="
M321.611572,208.916565 
	C321.899170,209.089920 321.899384,209.551727 321.642303,209.973969 
	C312.802887,220.311035 304.635834,230.626160 295.548645,240.054443 
	C278.499481,257.743500 261.150085,275.160065 243.469711,292.217438 
	C233.098434,302.223297 221.847733,311.317627 210.992599,320.821960 
	C210.992599,320.821960 210.532715,320.847992 210.302490,320.840210 
	C197.925201,310.835663 188.444595,298.963623 182.809341,284.039307 
	C161.792999,228.379868 209.767715,168.864563 268.577240,177.673981 
	C290.410950,180.944595 307.862549,191.390915 321.611572,208.916565 
z"/>
<path fill="#8AE1B0" opacity="1.000000" stroke="none" 
	d="
M211.188599,321.104401 
	C221.847733,311.317627 233.098434,302.223297 243.469711,292.217438 
	C261.150085,275.160065 278.499481,257.743500 295.548645,240.054443 
	C304.635834,230.626160 312.802887,220.311035 321.648987,210.204773 
	C330.736023,220.968430 335.408661,233.713318 336.839905,247.479446 
	C340.464905,282.344940 323.077728,314.045746 291.402008,328.631805 
	C263.688538,341.393341 236.716263,338.621429 211.188599,321.104401 
z"/>
</svg>